# xmcd CD database file
#
# Track frame offsets:
#	150
#	9542
#	28197
#	46980
#	59535
#	78252
#	96112
#	111737
#	127162
#	144802
#	164140
#	179455
#
# Disc length: 2567 seconds
#
# Revision: 0
# Processed by: cddbd v1.4PL0 Copyright (c) Steve Scherf et al.
# Submitted via: CDex 1.40Beta6
#
DISCID=ab0a050c
DTITLE=Jamie C. Taylor - Dynamite
DYEAR=2000
DGENRE=Country
TTITLE0=Gotta Be Love
TTITLE1=In Front Of Me
TTITLE2=They Fell
TTITLE3=I'm The One
TTITLE4=A Moment Too Soon
TTITLE5=Wild Horses
TTITLE6=The Calls
TTITLE7=Dynamite
TTITLE8=Edge Of Alone
TTITLE9=Just Like Jesse James
TTITLE10=Oh Well
TTITLE11=Gotta Be Love (Reprise)
EXTD=
EXTT0=
EXTT1=
EXTT2=
EXTT3=
EXTT4=
EXTT5=
EXTT6=
EXTT7=
EXTT8=
EXTT9=
EXTT10=
EXTT11=
PLAYORDER=
